<?xml version="1.0" encoding="UTF-8" standalone="no"?>
<!-- Created with Inkscape (http://www.inkscape.org/) -->

<svg
   width="61.118553mm"
   height="60.100403mm"
   viewBox="0 0 61.118553 60.100403"
   version="1.1"
   id="svg1"
   xml:space="preserve"
   xmlns="http://www.w3.org/2000/svg"
   xmlns:svg="http://www.w3.org/2000/svg"><defs
     id="defs1"><style
       id="style1">.cls-1{fill:#fff;}</style></defs><g
     id="layer1"
     transform="translate(-189.59191,372.16912)"><path
       fill-rule="evenodd"
       clip-rule="evenodd"
       d="m 220.17662,-372.1691 c -16.91257,0 -30.58471,13.77295 -30.58471,30.81196 0,13.62021 8.76021,25.14943 20.91296,29.22997 1.51942,0.30677 2.07596,-0.66297 2.07596,-1.47873 0,-0.71431 -0.0502,-3.16275 -0.0502,-5.71389 -8.50791,1.83682 -10.27961,-3.67299 -10.27961,-3.67299 -1.36728,-3.57095 -3.39317,-4.48873 -3.39317,-4.48873 -2.78463,-1.88752 0.20277,-1.88752 0.20277,-1.88752 3.08889,0.2042 4.70973,3.16276 4.70973,3.16276 2.73392,4.69283 7.1394,3.36686 8.91172,2.55052 0.25291,-1.98958 1.06365,-3.36687 1.92445,-4.13189 -6.78568,-0.71432 -13.92506,-3.36686 -13.92506,-15.20222 0,-3.36686 1.21452,-6.12146 3.13898,-8.26377 -0.30365,-0.76502 -1.36728,-3.92842 0.30424,-8.16236 0,0 2.58244,-0.81634 8.40527,3.16278 a 29.405255,29.405255 0 0 1 7.64649,-1.02044 c 2.58243,0 5.21494,0.35745 7.64587,1.02044 5.82345,-3.97912 8.40589,-3.16278 8.40589,-3.16278 1.67151,4.23394 0.60724,7.39734 0.30362,8.16236 1.97517,2.14231 3.13962,4.89691 3.13962,8.26377 0,11.83536 -7.1394,14.43656 -13.9758,15.20222 1.11436,0.9691 2.07597,2.80531 2.07597,5.71325 0,4.13189 -0.0502,7.44805 -0.0502,8.46788 0,0.81637 0.55718,1.78611 2.07594,1.47995 12.15277,-4.08179 20.91298,-15.61037 20.91298,-29.23058 0.0502,-17.03901 -13.67214,-30.81196 -30.534,-30.81196 z"
       fill="#ffffff"
       id="path1"
       style="fill:#eeeeee;fill-opacity:1;stroke-width:0.626043" /></g></svg>
