<?xml version="1.0" encoding="UTF-8" standalone="no"?>
<!-- Created with Inkscape (http://www.inkscape.org/) -->

<svg
   width="61.118637mm"
   height="61.119076mm"
   viewBox="0 0 61.118637 61.119076"
   version="1.1"
   id="svg1"
   xml:space="preserve"
   xmlns="http://www.w3.org/2000/svg"
   xmlns:svg="http://www.w3.org/2000/svg"><defs
     id="defs1"><style
       id="style1">.cls-1{fill:#fff;}</style></defs><g
     id="layer1"
     transform="translate(-31.626809,372.41103)"><path
       class="cls-1"
       d="m 49.529909,-372.19728 c -3.251543,0.15341 -5.472006,0.67231 -7.413154,1.43508 -2.008992,0.78293 -3.711774,1.83358 -5.406,3.53392 -1.694226,1.70033 -2.73753,3.40434 -3.514967,5.41638 -0.752378,1.94543 -1.262114,4.16772 -1.405744,7.4211 -0.14363,3.25338 -0.175411,4.29914 -0.15952,12.59791 0.01589,8.29877 0.05256,9.33902 0.210248,12.59912 0.155245,3.25094 0.672313,5.47079 1.435082,7.41254 0.784159,2.00899 1.833577,3.71116 3.534525,5.40601 1.700951,1.69483 3.403733,2.73569 5.420668,3.51435 1.943593,0.75116 4.166501,1.26334 7.419268,1.40575 3.252768,0.1424 4.29974,0.17541 12.59607,0.15951 8.296327,-0.0159 9.340856,-0.0525 12.600346,-0.20719 3.259491,-0.15463 5.467728,-0.67537 7.410099,-1.43447 2.008991,-0.786 3.712383,-1.83358 5.405999,-3.53514 1.693614,-1.70156 2.736308,-3.40678 3.513135,-5.42006 0.752988,-1.94358 1.264558,-4.16649 1.405741,-7.41682 0.142408,-3.26193 0.176024,-4.3034 0.160133,-12.60096 -0.0159,-8.29754 -0.05317,-9.33779 -0.207804,-12.59667 -0.154633,-3.25888 -0.672313,-5.47201 -1.434469,-7.41499 -0.785384,-2.00899 -1.833578,-3.70994 -3.533916,-5.406 -1.700339,-1.69606 -3.406789,-2.73814 -5.419444,-3.51314 -1.944817,-0.75238 -4.166501,-1.26517 -7.419269,-1.40574 -3.252766,-0.14057 -4.299738,-0.17663 -12.599122,-0.16075 -8.299387,0.0159 -9.338414,0.0513 -12.597905,0.21026 m 0.356937,55.24447 c -2.979564,-0.12957 -4.597391,-0.62464 -5.675535,-1.03903 -1.427746,-0.55006 -2.444769,-1.21505 -3.519247,-2.27912 -1.074475,-1.06409 -1.734563,-2.08479 -2.291971,-3.50948 -0.418668,-1.07814 -0.922901,-2.69413 -1.062253,-5.67369 -0.151577,-3.22038 -0.183358,-4.18728 -0.201083,-12.3461 -0.01772,-8.15881 0.01344,-9.12449 0.154631,-12.34609 0.127129,-2.97712 0.62525,-4.59678 1.039028,-5.67432 0.550073,-1.42957 1.212605,-2.44476 2.279136,-3.51863 1.066532,-1.07386 2.084169,-1.73517 3.510079,-2.29258 1.076922,-0.4205 2.692918,-0.92045 5.671257,-1.06225 3.22282,-0.1528 4.188504,-0.18337 12.346091,-0.20108 8.157589,-0.0177 9.125718,0.0129 12.349758,0.15463 2.977122,0.12957 4.597392,0.6228 5.673701,1.03902 1.428359,0.55008 2.444772,1.21077 3.518638,2.27914 1.073863,1.06836 1.735786,2.08233 2.293193,3.5113 0.421112,1.07387 0.921067,2.68925 1.061641,5.66942 0.153411,3.22282 0.188248,4.18912 0.202917,12.34609 0.01467,8.15698 -0.01404,9.12572 -0.155243,12.3461 -0.130183,2.97956 -0.624029,4.598 -1.039028,5.67736 -0.550073,1.42714 -1.213217,2.44478 -2.280359,3.51803 -1.067143,1.07326 -2.083556,1.73457 -3.510078,2.29197 -1.0757,0.41989 -2.693527,0.92107 -5.669423,1.06286 -3.222819,0.15158 -4.188503,0.18336 -12.349146,0.20108 -8.160646,0.0177 -9.123274,-0.0152 -12.346094,-0.15463 m 24.912213,-41.23166 a 3.6671556,3.6671556 0 1 0 3.659821,-3.67326 3.6671556,3.6671556 0 0 0 -3.659821,3.67326 m -28.304331,16.36346 c 0.01712,8.66671 7.055608,15.67648 15.720487,15.65998 8.664878,-0.0165 15.679534,-7.05438 15.663033,-15.7211 -0.01649,-8.66671 -7.05683,-15.67831 -15.722931,-15.6612 -8.6661,0.0172 -15.677091,7.05683 -15.660589,15.72232 m 5.5044,-0.011 a 10.186747,10.186747 0 1 1 10.206919,10.16658 10.185524,10.185524 0 0 1 -10.206919,-10.16658"
       id="path1-2"
       style="fill:#eeeeee;fill-opacity:1;stroke-width:0.0611192" /></g></svg>
